<mxfile host="app.diagrams.net" agent="Mozilla/5.0 (Windows NT 10.0; Win64; x64) AppleWebKit/537.36 (KHTML, like Gecko) Chrome/128.0.0.0 Safari/537.36 OPR/114.0.0.0 (Edition std-1)" version="24.9.2">
  <diagram name="Page-1" id="AXslyLzXhd0MhdzWl6rs">
    <mxGraphModel dx="1441" dy="819" grid="1" gridSize="10" guides="1" tooltips="1" connect="1" arrows="1" fold="1" page="1" pageScale="1" pageWidth="827" pageHeight="1169" math="0" shadow="0">
      <root>
        <mxCell id="0" />
        <mxCell id="1" parent="0" />
        <mxCell id="sdot0CuQ4gvF2WT7U55k-1" value="Manejo de inventario" style="strokeWidth=1;shadow=0;dashed=0;align=center;html=1;shape=mxgraph.mockup.containers.window;align=left;verticalAlign=top;spacingLeft=8;strokeColor2=#008cff;strokeColor3=#c4c4c4;mainText=;fontSize=17;labelBackgroundColor=none;whiteSpace=wrap;fillColor=#1ba1e2;fontColor=#ffffff;strokeColor=#006EAF;" vertex="1" parent="1">
          <mxGeometry x="60" y="4" width="1200" height="580" as="geometry" />
        </mxCell>
        <mxCell id="sdot0CuQ4gvF2WT7U55k-69" value="&lt;font color=&quot;#ffffff&quot;&gt;&lt;span style=&quot;font-size: 17px;&quot;&gt;Tabla Insumo-Cantidad:&lt;/span&gt;&lt;/font&gt;" style="text;html=1;align=center;verticalAlign=middle;whiteSpace=wrap;rounded=0;" vertex="1" parent="1">
          <mxGeometry x="80" y="130" width="206" height="30" as="geometry" />
        </mxCell>
        <mxCell id="sdot0CuQ4gvF2WT7U55k-74" value="&lt;font color=&quot;#ffffff&quot;&gt;Volver&lt;/font&gt;" style="rounded=1;whiteSpace=wrap;html=1;strokeColor=none;fillColor=#99CCFF;align=left;" vertex="1" parent="1">
          <mxGeometry x="70" y="50" width="76" height="30" as="geometry" />
        </mxCell>
        <mxCell id="sdot0CuQ4gvF2WT7U55k-75" value="&lt;font color=&quot;#ffffff&quot;&gt;&lt;span style=&quot;font-size: 21px;&quot;&gt;&lt;b&gt;Box 1&lt;/b&gt;&lt;/span&gt;&lt;/font&gt;&lt;hr&gt;" style="text;html=1;align=center;verticalAlign=middle;whiteSpace=wrap;rounded=0;" vertex="1" parent="1">
          <mxGeometry x="305" y="50" width="140" height="30" as="geometry" />
        </mxCell>
        <mxCell id="sdot0CuQ4gvF2WT7U55k-78" value="" style="whiteSpace=wrap;html=1;aspect=fixed;fillColor=#000000;" vertex="1" parent="1">
          <mxGeometry x="88" y="160" width="240" height="240" as="geometry" />
        </mxCell>
        <mxCell id="sdot0CuQ4gvF2WT7U55k-80" value="&lt;font style=&quot;font-size: 14px;&quot; color=&quot;#ffffff&quot;&gt;Cera&amp;nbsp; &amp;nbsp;25&lt;/font&gt;&lt;div&gt;&lt;font color=&quot;#ffffff&quot;&gt;&lt;span style=&quot;font-size: 14px;&quot;&gt;&lt;br&gt;&lt;/span&gt;&lt;/font&gt;&lt;div&gt;&lt;font style=&quot;font-size: 14px;&quot; color=&quot;#ffffff&quot;&gt;CIF&amp;nbsp; &amp;nbsp; &amp;nbsp;25&lt;/font&gt;&lt;/div&gt;&lt;div&gt;&lt;font style=&quot;font-size: 14px;&quot; color=&quot;#ffffff&quot;&gt;&lt;br&gt;&lt;/font&gt;&lt;/div&gt;&lt;div&gt;&lt;font style=&quot;font-size: 14px;&quot; color=&quot;#ffffff&quot;&gt;Escoba&amp;nbsp; &amp;nbsp;10&lt;/font&gt;&lt;/div&gt;&lt;div&gt;&lt;font style=&quot;font-size: 14px;&quot; color=&quot;#ffffff&quot;&gt;&lt;br&gt;&lt;/font&gt;&lt;/div&gt;&lt;div&gt;&lt;span style=&quot;font-size: 14px; color: rgb(255, 255, 255); background-color: initial;&quot;&gt;Pala&amp;nbsp; &amp;nbsp; 50&lt;/span&gt;&lt;/div&gt;&lt;div&gt;&lt;span style=&quot;font-size: 14px; color: rgb(255, 255, 255); background-color: initial;&quot;&gt;&lt;br&gt;&lt;/span&gt;&lt;/div&gt;&lt;div&gt;&lt;span style=&quot;font-size: 14px; color: rgb(255, 255, 255); background-color: initial;&quot;&gt;Quix&amp;nbsp; &amp;nbsp; 54&lt;/span&gt;&lt;/div&gt;&lt;div&gt;&lt;span style=&quot;font-size: 14px; color: rgb(255, 255, 255); background-color: initial;&quot;&gt;&lt;br&gt;&lt;/span&gt;&lt;/div&gt;&lt;div&gt;&lt;font style=&quot;font-size: 14px;&quot; color=&quot;#ffffff&quot;&gt;Rastrillo&amp;nbsp; &amp;nbsp; 1&lt;/font&gt;&lt;/div&gt;&lt;div&gt;&lt;font style=&quot;font-size: 14px;&quot; color=&quot;#ffffff&quot;&gt;&lt;br&gt;&lt;/font&gt;&lt;/div&gt;&lt;div&gt;&lt;font style=&quot;font-size: 14px;&quot; color=&quot;#ffffff&quot;&gt;Trapo&amp;nbsp; &amp;nbsp; 10&lt;/font&gt;&lt;/div&gt;&lt;/div&gt;" style="text;html=1;align=left;verticalAlign=middle;whiteSpace=wrap;rounded=0;" vertex="1" parent="1">
          <mxGeometry x="100" y="195" width="190" height="170" as="geometry" />
        </mxCell>
        <mxCell id="sdot0CuQ4gvF2WT7U55k-91" value="&lt;font style=&quot;font-size: 20px;&quot; color=&quot;#ffffff&quot;&gt;Limpieza&lt;/font&gt;" style="text;html=1;align=center;verticalAlign=middle;whiteSpace=wrap;rounded=0;" vertex="1" parent="1">
          <mxGeometry x="315" y="85" width="120" height="45" as="geometry" />
        </mxCell>
        <mxCell id="sdot0CuQ4gvF2WT7U55k-92" value="&lt;font style=&quot;font-size: 15px;&quot; color=&quot;#ffffff&quot;&gt;Ingrese el nombre del nuevo insumo:&amp;nbsp;&lt;/font&gt;" style="text;html=1;align=center;verticalAlign=middle;whiteSpace=wrap;rounded=0;" vertex="1" parent="1">
          <mxGeometry x="350" y="160" width="270" height="30" as="geometry" />
        </mxCell>
        <mxCell id="sdot0CuQ4gvF2WT7U55k-93" value="" style="rounded=1;whiteSpace=wrap;html=1;fillColor=#000000;strokeColor=#000000;" vertex="1" parent="1">
          <mxGeometry x="354" y="190" width="256" height="30" as="geometry" />
        </mxCell>
        <mxCell id="sdot0CuQ4gvF2WT7U55k-95" value="&lt;font color=&quot;#b3b3b3&quot;&gt;Escriba acá&lt;/font&gt;" style="text;html=1;align=center;verticalAlign=middle;whiteSpace=wrap;rounded=0;movable=1;resizable=1;rotatable=1;deletable=1;editable=1;locked=0;connectable=1;" vertex="1" parent="1">
          <mxGeometry x="350" y="190" width="95" height="30" as="geometry" />
        </mxCell>
        <mxCell id="sdot0CuQ4gvF2WT7U55k-99" value="&lt;font style=&quot;font-size: 15px;&quot; color=&quot;#ffffff&quot;&gt;Ingrese la cantidad:&amp;nbsp;&lt;/font&gt;" style="text;html=1;align=left;verticalAlign=middle;whiteSpace=wrap;rounded=0;" vertex="1" parent="1">
          <mxGeometry x="356" y="265" width="270" height="30" as="geometry" />
        </mxCell>
        <mxCell id="sdot0CuQ4gvF2WT7U55k-100" value="&lt;font color=&quot;#ffffff&quot;&gt;&lt;span style=&quot;font-size: 21px;&quot;&gt;&lt;b&gt;Sala de espera&lt;/b&gt;&lt;/span&gt;&lt;/font&gt;" style="text;html=1;align=center;verticalAlign=middle;whiteSpace=wrap;rounded=0;" vertex="1" parent="1">
          <mxGeometry x="159" y="50" width="175" height="30" as="geometry" />
        </mxCell>
        <mxCell id="sdot0CuQ4gvF2WT7U55k-101" value="" style="rounded=1;whiteSpace=wrap;html=1;fillColor=#99CCFF;strokeColor=none;" vertex="1" parent="1">
          <mxGeometry x="356" y="230" width="57.5" height="20" as="geometry" />
        </mxCell>
        <mxCell id="sdot0CuQ4gvF2WT7U55k-103" value="&lt;font color=&quot;#ffffff&quot;&gt;Ingresar&lt;/font&gt;" style="text;html=1;align=center;verticalAlign=middle;whiteSpace=wrap;rounded=0;" vertex="1" parent="1">
          <mxGeometry x="354.75" y="225" width="60" height="30" as="geometry" />
        </mxCell>
        <mxCell id="sdot0CuQ4gvF2WT7U55k-104" value="" style="rounded=1;whiteSpace=wrap;html=1;fillColor=#000000;" vertex="1" parent="1">
          <mxGeometry x="354" y="295" width="246" height="25" as="geometry" />
        </mxCell>
        <mxCell id="sdot0CuQ4gvF2WT7U55k-105" value="&lt;font color=&quot;#b3b3b3&quot;&gt;Valor numérico&lt;/font&gt;" style="text;html=1;align=left;verticalAlign=middle;whiteSpace=wrap;rounded=0;" vertex="1" parent="1">
          <mxGeometry x="362" y="292.5" width="104" height="30" as="geometry" />
        </mxCell>
        <mxCell id="sdot0CuQ4gvF2WT7U55k-106" value="" style="whiteSpace=wrap;html=1;aspect=fixed;strokeColor=none;fillColor=#99CCFF;" vertex="1" parent="1">
          <mxGeometry x="354" y="330" width="20" height="20" as="geometry" />
        </mxCell>
        <mxCell id="sdot0CuQ4gvF2WT7U55k-107" value="" style="whiteSpace=wrap;html=1;aspect=fixed;strokeColor=none;fillColor=#99CCFF;" vertex="1" parent="1">
          <mxGeometry x="376" y="330" width="20" height="20" as="geometry" />
        </mxCell>
        <mxCell id="sdot0CuQ4gvF2WT7U55k-108" value="&lt;font color=&quot;#ffffff&quot;&gt;+&lt;/font&gt;" style="text;html=1;align=center;verticalAlign=middle;whiteSpace=wrap;rounded=0;" vertex="1" parent="1">
          <mxGeometry x="334" y="325" width="60" height="30" as="geometry" />
        </mxCell>
        <mxCell id="sdot0CuQ4gvF2WT7U55k-109" value="&lt;font color=&quot;#ffffff&quot;&gt;-&lt;/font&gt;" style="text;html=1;align=center;verticalAlign=middle;whiteSpace=wrap;rounded=0;movable=1;resizable=1;rotatable=1;deletable=1;editable=1;locked=0;connectable=1;" vertex="1" parent="1">
          <mxGeometry x="354.75" y="325" width="60" height="30" as="geometry" />
        </mxCell>
        <mxCell id="sdot0CuQ4gvF2WT7U55k-110" value="" style="whiteSpace=wrap;html=1;aspect=fixed;fillColor=#000000;" vertex="1" parent="1">
          <mxGeometry x="670" y="160" width="240" height="240" as="geometry" />
        </mxCell>
        <mxCell id="sdot0CuQ4gvF2WT7U55k-111" value="&lt;font style=&quot;font-size: 14px;&quot; color=&quot;#ffffff&quot;&gt;Cera&amp;nbsp; &amp;nbsp;25&lt;/font&gt;&lt;div&gt;&lt;font color=&quot;#ffffff&quot;&gt;&lt;span style=&quot;font-size: 14px;&quot;&gt;&lt;br&gt;&lt;/span&gt;&lt;/font&gt;&lt;div&gt;&lt;font style=&quot;font-size: 14px;&quot; color=&quot;#ffffff&quot;&gt;CIF&amp;nbsp; &amp;nbsp; &amp;nbsp;25&lt;/font&gt;&lt;/div&gt;&lt;div&gt;&lt;font style=&quot;font-size: 14px;&quot; color=&quot;#ffffff&quot;&gt;&lt;br&gt;&lt;/font&gt;&lt;/div&gt;&lt;div&gt;&lt;font style=&quot;font-size: 14px;&quot; color=&quot;#ffffff&quot;&gt;Escoba&amp;nbsp; &amp;nbsp;10&lt;/font&gt;&lt;/div&gt;&lt;div&gt;&lt;font style=&quot;font-size: 14px;&quot; color=&quot;#ffffff&quot;&gt;&lt;br&gt;&lt;/font&gt;&lt;/div&gt;&lt;div&gt;&lt;span style=&quot;font-size: 14px; color: rgb(255, 255, 255); background-color: initial;&quot;&gt;Pala&amp;nbsp; &amp;nbsp; 50&lt;/span&gt;&lt;/div&gt;&lt;div&gt;&lt;span style=&quot;font-size: 14px; color: rgb(255, 255, 255); background-color: initial;&quot;&gt;&lt;br&gt;&lt;/span&gt;&lt;/div&gt;&lt;div&gt;&lt;span style=&quot;font-size: 14px; color: rgb(255, 255, 255); background-color: initial;&quot;&gt;Quix&amp;nbsp; &amp;nbsp; 54&lt;/span&gt;&lt;/div&gt;&lt;div&gt;&lt;span style=&quot;font-size: 14px; color: rgb(255, 255, 255); background-color: initial;&quot;&gt;&lt;br&gt;&lt;/span&gt;&lt;/div&gt;&lt;div&gt;&lt;font style=&quot;font-size: 14px;&quot; color=&quot;#ffffff&quot;&gt;Rastrillo&amp;nbsp; &amp;nbsp; 1&lt;/font&gt;&lt;/div&gt;&lt;div&gt;&lt;font style=&quot;font-size: 14px;&quot; color=&quot;#ffffff&quot;&gt;&lt;br&gt;&lt;/font&gt;&lt;/div&gt;&lt;div&gt;&lt;font style=&quot;font-size: 14px;&quot; color=&quot;#ffffff&quot;&gt;Trapo&amp;nbsp; &amp;nbsp; 10&lt;/font&gt;&lt;/div&gt;&lt;/div&gt;" style="text;html=1;align=left;verticalAlign=middle;whiteSpace=wrap;rounded=0;" vertex="1" parent="1">
          <mxGeometry x="680" y="195" width="190" height="170" as="geometry" />
        </mxCell>
        <mxCell id="sdot0CuQ4gvF2WT7U55k-112" value="&lt;font color=&quot;#ffffff&quot;&gt;&lt;span style=&quot;font-size: 17px;&quot;&gt;Tabla Insumos - Cantidad:&lt;/span&gt;&lt;/font&gt;" style="text;html=1;align=center;verticalAlign=middle;whiteSpace=wrap;rounded=0;" vertex="1" parent="1">
          <mxGeometry x="660" y="130" width="206" height="30" as="geometry" />
        </mxCell>
        <mxCell id="sdot0CuQ4gvF2WT7U55k-113" value="&lt;font color=&quot;#ffffff&quot;&gt;&lt;span style=&quot;font-size: 21px;&quot;&gt;&lt;b&gt;Box 2&lt;/b&gt;&lt;/span&gt;&lt;/font&gt;" style="text;html=1;align=center;verticalAlign=middle;whiteSpace=wrap;rounded=0;" vertex="1" parent="1">
          <mxGeometry x="424.75" y="50" width="94" height="30" as="geometry" />
        </mxCell>
        <mxCell id="sdot0CuQ4gvF2WT7U55k-115" value="&lt;font style=&quot;font-size: 15px;&quot; color=&quot;#ffffff&quot;&gt;Ingrese el nombre del nuevo insumo:&amp;nbsp;&lt;/font&gt;" style="text;html=1;align=center;verticalAlign=middle;whiteSpace=wrap;rounded=0;" vertex="1" parent="1">
          <mxGeometry x="969" y="160" width="270" height="30" as="geometry" />
        </mxCell>
        <mxCell id="sdot0CuQ4gvF2WT7U55k-116" value="" style="rounded=1;whiteSpace=wrap;html=1;fillColor=#000000;strokeColor=#000000;" vertex="1" parent="1">
          <mxGeometry x="976" y="190" width="256" height="30" as="geometry" />
        </mxCell>
        <mxCell id="sdot0CuQ4gvF2WT7U55k-117" value="&lt;font color=&quot;#b3b3b3&quot;&gt;Escriba acá&lt;/font&gt;" style="text;html=1;align=center;verticalAlign=middle;whiteSpace=wrap;rounded=0;movable=1;resizable=1;rotatable=1;deletable=1;editable=1;locked=0;connectable=1;" vertex="1" parent="1">
          <mxGeometry x="964" y="190" width="95" height="30" as="geometry" />
        </mxCell>
        <mxCell id="sdot0CuQ4gvF2WT7U55k-120" value="" style="rounded=1;whiteSpace=wrap;html=1;fillColor=#99CCFF;strokeColor=none;movable=1;resizable=1;rotatable=1;deletable=1;editable=1;locked=0;connectable=1;" vertex="1" parent="1">
          <mxGeometry x="976" y="230" width="57.5" height="20" as="geometry" />
        </mxCell>
        <mxCell id="sdot0CuQ4gvF2WT7U55k-118" value="&lt;font color=&quot;#ffffff&quot;&gt;Ingresar&lt;/font&gt;" style="text;html=1;align=center;verticalAlign=middle;whiteSpace=wrap;rounded=0;" vertex="1" parent="1">
          <mxGeometry x="976" y="225" width="60" height="30" as="geometry" />
        </mxCell>
        <mxCell id="sdot0CuQ4gvF2WT7U55k-121" value="&lt;font style=&quot;font-size: 15px;&quot; color=&quot;#ffffff&quot;&gt;Ingrese la cantidad:&amp;nbsp;&lt;/font&gt;" style="text;html=1;align=left;verticalAlign=middle;whiteSpace=wrap;rounded=0;" vertex="1" parent="1">
          <mxGeometry x="976" y="265" width="270" height="30" as="geometry" />
        </mxCell>
        <mxCell id="sdot0CuQ4gvF2WT7U55k-122" value="" style="rounded=1;whiteSpace=wrap;html=1;fillColor=#000000;" vertex="1" parent="1">
          <mxGeometry x="976" y="297.5" width="246" height="25" as="geometry" />
        </mxCell>
        <mxCell id="sdot0CuQ4gvF2WT7U55k-123" value="&lt;font color=&quot;#b3b3b3&quot;&gt;Valor numérico&lt;/font&gt;" style="text;html=1;align=left;verticalAlign=middle;whiteSpace=wrap;rounded=0;" vertex="1" parent="1">
          <mxGeometry x="980" y="295" width="104" height="30" as="geometry" />
        </mxCell>
        <mxCell id="sdot0CuQ4gvF2WT7U55k-127" value="" style="whiteSpace=wrap;html=1;aspect=fixed;strokeColor=none;fillColor=#99CCFF;" vertex="1" parent="1">
          <mxGeometry x="980" y="330" width="20" height="20" as="geometry" />
        </mxCell>
        <mxCell id="sdot0CuQ4gvF2WT7U55k-128" value="" style="whiteSpace=wrap;html=1;aspect=fixed;strokeColor=none;fillColor=#99CCFF;" vertex="1" parent="1">
          <mxGeometry x="1001.5" y="330" width="20" height="20" as="geometry" />
        </mxCell>
        <mxCell id="sdot0CuQ4gvF2WT7U55k-130" value="&lt;font color=&quot;#ffffff&quot;&gt;+&lt;/font&gt;" style="text;html=1;align=center;verticalAlign=middle;whiteSpace=wrap;rounded=0;" vertex="1" parent="1">
          <mxGeometry x="960" y="325" width="60" height="30" as="geometry" />
        </mxCell>
        <mxCell id="sdot0CuQ4gvF2WT7U55k-131" value="&lt;font color=&quot;#ffffff&quot;&gt;-&lt;/font&gt;" style="text;html=1;align=center;verticalAlign=middle;whiteSpace=wrap;rounded=0;" vertex="1" parent="1">
          <mxGeometry x="981.5" y="325" width="60" height="30" as="geometry" />
        </mxCell>
        <mxCell id="sdot0CuQ4gvF2WT7U55k-133" value="&lt;font color=&quot;#ffffff&quot;&gt;&lt;span style=&quot;font-size: 20px;&quot;&gt;Medicamentos&lt;/span&gt;&lt;/font&gt;" style="text;html=1;align=center;verticalAlign=middle;whiteSpace=wrap;rounded=0;" vertex="1" parent="1">
          <mxGeometry x="880" y="70" width="120" height="45" as="geometry" />
        </mxCell>
        <mxCell id="sdot0CuQ4gvF2WT7U55k-171" value="Manejo de inventario" style="strokeWidth=1;shadow=0;dashed=0;align=center;html=1;shape=mxgraph.mockup.containers.window;align=left;verticalAlign=top;spacingLeft=8;strokeColor2=#008cff;strokeColor3=#c4c4c4;mainText=;fontSize=17;labelBackgroundColor=none;whiteSpace=wrap;fillColor=#1ba1e2;fontColor=#ffffff;strokeColor=#006EAF;" vertex="1" parent="1">
          <mxGeometry x="70" y="630" width="1200" height="580" as="geometry" />
        </mxCell>
        <mxCell id="sdot0CuQ4gvF2WT7U55k-172" value="&lt;font color=&quot;#ffffff&quot;&gt;&lt;span style=&quot;font-size: 17px;&quot;&gt;Tabla Insumo-Cantidad:&lt;/span&gt;&lt;/font&gt;" style="text;html=1;align=center;verticalAlign=middle;whiteSpace=wrap;rounded=0;" vertex="1" parent="1">
          <mxGeometry x="90" y="756" width="206" height="30" as="geometry" />
        </mxCell>
        <mxCell id="sdot0CuQ4gvF2WT7U55k-173" value="&lt;font color=&quot;#ffffff&quot;&gt;Volver&lt;/font&gt;" style="rounded=1;whiteSpace=wrap;html=1;strokeColor=none;fillColor=#99CCFF;align=left;" vertex="1" parent="1">
          <mxGeometry x="83" y="666" width="76" height="30" as="geometry" />
        </mxCell>
        <mxCell id="sdot0CuQ4gvF2WT7U55k-175" value="" style="whiteSpace=wrap;html=1;aspect=fixed;fillColor=#000000;" vertex="1" parent="1">
          <mxGeometry x="98" y="786" width="240" height="240" as="geometry" />
        </mxCell>
        <mxCell id="sdot0CuQ4gvF2WT7U55k-176" value="&lt;font style=&quot;font-size: 14px;&quot; color=&quot;#ffffff&quot;&gt;Cera&amp;nbsp; &amp;nbsp;25&lt;/font&gt;&lt;div&gt;&lt;font color=&quot;#ffffff&quot;&gt;&lt;span style=&quot;font-size: 14px;&quot;&gt;&lt;br&gt;&lt;/span&gt;&lt;/font&gt;&lt;div&gt;&lt;font style=&quot;font-size: 14px;&quot; color=&quot;#ffffff&quot;&gt;CIF&amp;nbsp; &amp;nbsp; &amp;nbsp;25&lt;/font&gt;&lt;/div&gt;&lt;div&gt;&lt;font style=&quot;font-size: 14px;&quot; color=&quot;#ffffff&quot;&gt;&lt;br&gt;&lt;/font&gt;&lt;/div&gt;&lt;div&gt;&lt;font style=&quot;font-size: 14px;&quot; color=&quot;#ffffff&quot;&gt;Escoba&amp;nbsp; &amp;nbsp;10&lt;/font&gt;&lt;/div&gt;&lt;div&gt;&lt;font style=&quot;font-size: 14px;&quot; color=&quot;#ffffff&quot;&gt;&lt;br&gt;&lt;/font&gt;&lt;/div&gt;&lt;div&gt;&lt;span style=&quot;font-size: 14px; color: rgb(255, 255, 255); background-color: initial;&quot;&gt;Pala&amp;nbsp; &amp;nbsp; 50&lt;/span&gt;&lt;/div&gt;&lt;div&gt;&lt;span style=&quot;font-size: 14px; color: rgb(255, 255, 255); background-color: initial;&quot;&gt;&lt;br&gt;&lt;/span&gt;&lt;/div&gt;&lt;div&gt;&lt;span style=&quot;font-size: 14px; color: rgb(255, 255, 255); background-color: initial;&quot;&gt;Quix&amp;nbsp; &amp;nbsp; 54&lt;/span&gt;&lt;/div&gt;&lt;div&gt;&lt;span style=&quot;font-size: 14px; color: rgb(255, 255, 255); background-color: initial;&quot;&gt;&lt;br&gt;&lt;/span&gt;&lt;/div&gt;&lt;div&gt;&lt;font style=&quot;font-size: 14px;&quot; color=&quot;#ffffff&quot;&gt;Rastrillo&amp;nbsp; &amp;nbsp; 1&lt;/font&gt;&lt;/div&gt;&lt;div&gt;&lt;font style=&quot;font-size: 14px;&quot; color=&quot;#ffffff&quot;&gt;&lt;br&gt;&lt;/font&gt;&lt;/div&gt;&lt;div&gt;&lt;font style=&quot;font-size: 14px;&quot; color=&quot;#ffffff&quot;&gt;Trapo&amp;nbsp; &amp;nbsp; 10&lt;/font&gt;&lt;/div&gt;&lt;/div&gt;" style="text;html=1;align=left;verticalAlign=middle;whiteSpace=wrap;rounded=0;" vertex="1" parent="1">
          <mxGeometry x="110" y="821" width="190" height="170" as="geometry" />
        </mxCell>
        <mxCell id="sdot0CuQ4gvF2WT7U55k-177" value="&lt;font style=&quot;font-size: 20px;&quot; color=&quot;#ffffff&quot;&gt;Limpieza&lt;/font&gt;" style="text;html=1;align=center;verticalAlign=middle;whiteSpace=wrap;rounded=0;" vertex="1" parent="1">
          <mxGeometry x="325" y="711" width="120" height="45" as="geometry" />
        </mxCell>
        <mxCell id="sdot0CuQ4gvF2WT7U55k-178" value="&lt;font style=&quot;font-size: 15px;&quot; color=&quot;#ffffff&quot;&gt;Ingrese el nombre del nuevo insumo:&amp;nbsp;&lt;/font&gt;" style="text;html=1;align=center;verticalAlign=middle;whiteSpace=wrap;rounded=0;" vertex="1" parent="1">
          <mxGeometry x="360" y="786" width="270" height="30" as="geometry" />
        </mxCell>
        <mxCell id="sdot0CuQ4gvF2WT7U55k-179" value="" style="rounded=1;whiteSpace=wrap;html=1;fillColor=#000000;strokeColor=#000000;" vertex="1" parent="1">
          <mxGeometry x="364" y="816" width="256" height="30" as="geometry" />
        </mxCell>
        <mxCell id="sdot0CuQ4gvF2WT7U55k-180" value="&lt;font color=&quot;#b3b3b3&quot;&gt;Escriba acá&lt;/font&gt;" style="text;html=1;align=center;verticalAlign=middle;whiteSpace=wrap;rounded=0;movable=1;resizable=1;rotatable=1;deletable=1;editable=1;locked=0;connectable=1;" vertex="1" parent="1">
          <mxGeometry x="360" y="816" width="95" height="30" as="geometry" />
        </mxCell>
        <mxCell id="sdot0CuQ4gvF2WT7U55k-181" value="&lt;font style=&quot;font-size: 15px;&quot; color=&quot;#ffffff&quot;&gt;Ingrese la cantidad:&amp;nbsp;&lt;/font&gt;" style="text;html=1;align=left;verticalAlign=middle;whiteSpace=wrap;rounded=0;" vertex="1" parent="1">
          <mxGeometry x="366" y="891" width="270" height="30" as="geometry" />
        </mxCell>
        <mxCell id="sdot0CuQ4gvF2WT7U55k-182" value="&lt;font color=&quot;#ffffff&quot;&gt;&lt;span style=&quot;font-size: 21px;&quot;&gt;&lt;b&gt;Sala de espera&lt;/b&gt;&lt;/span&gt;&lt;/font&gt;" style="text;html=1;align=center;verticalAlign=middle;whiteSpace=wrap;rounded=0;" vertex="1" parent="1">
          <mxGeometry x="169" y="666" width="175" height="30" as="geometry" />
        </mxCell>
        <mxCell id="sdot0CuQ4gvF2WT7U55k-183" value="" style="rounded=1;whiteSpace=wrap;html=1;fillColor=#99CCFF;strokeColor=none;" vertex="1" parent="1">
          <mxGeometry x="366" y="856" width="57.5" height="20" as="geometry" />
        </mxCell>
        <mxCell id="sdot0CuQ4gvF2WT7U55k-184" value="&lt;font color=&quot;#ffffff&quot;&gt;Ingresar&lt;/font&gt;" style="text;html=1;align=center;verticalAlign=middle;whiteSpace=wrap;rounded=0;" vertex="1" parent="1">
          <mxGeometry x="364.75" y="851" width="60" height="30" as="geometry" />
        </mxCell>
        <mxCell id="sdot0CuQ4gvF2WT7U55k-185" value="" style="rounded=1;whiteSpace=wrap;html=1;fillColor=#000000;" vertex="1" parent="1">
          <mxGeometry x="364" y="921" width="246" height="25" as="geometry" />
        </mxCell>
        <mxCell id="sdot0CuQ4gvF2WT7U55k-186" value="&lt;font color=&quot;#b3b3b3&quot;&gt;Valor numérico&lt;/font&gt;" style="text;html=1;align=left;verticalAlign=middle;whiteSpace=wrap;rounded=0;" vertex="1" parent="1">
          <mxGeometry x="372" y="918.5" width="104" height="30" as="geometry" />
        </mxCell>
        <mxCell id="sdot0CuQ4gvF2WT7U55k-187" value="" style="whiteSpace=wrap;html=1;aspect=fixed;strokeColor=none;fillColor=#99CCFF;" vertex="1" parent="1">
          <mxGeometry x="364" y="956" width="20" height="20" as="geometry" />
        </mxCell>
        <mxCell id="sdot0CuQ4gvF2WT7U55k-188" value="" style="whiteSpace=wrap;html=1;aspect=fixed;strokeColor=none;fillColor=#99CCFF;" vertex="1" parent="1">
          <mxGeometry x="386" y="956" width="20" height="20" as="geometry" />
        </mxCell>
        <mxCell id="sdot0CuQ4gvF2WT7U55k-189" value="&lt;font color=&quot;#ffffff&quot;&gt;+&lt;/font&gt;" style="text;html=1;align=center;verticalAlign=middle;whiteSpace=wrap;rounded=0;" vertex="1" parent="1">
          <mxGeometry x="344" y="951" width="60" height="30" as="geometry" />
        </mxCell>
        <mxCell id="sdot0CuQ4gvF2WT7U55k-190" value="&lt;font color=&quot;#ffffff&quot;&gt;-&lt;/font&gt;" style="text;html=1;align=center;verticalAlign=middle;whiteSpace=wrap;rounded=0;movable=1;resizable=1;rotatable=1;deletable=1;editable=1;locked=0;connectable=1;" vertex="1" parent="1">
          <mxGeometry x="364.75" y="951" width="60" height="30" as="geometry" />
        </mxCell>
        <mxCell id="sdot0CuQ4gvF2WT7U55k-191" value="" style="whiteSpace=wrap;html=1;aspect=fixed;fillColor=#000000;" vertex="1" parent="1">
          <mxGeometry x="680" y="786" width="240" height="240" as="geometry" />
        </mxCell>
        <mxCell id="sdot0CuQ4gvF2WT7U55k-192" value="&lt;font style=&quot;font-size: 14px;&quot; color=&quot;#ffffff&quot;&gt;Cera&amp;nbsp; &amp;nbsp;25&lt;/font&gt;&lt;div&gt;&lt;font color=&quot;#ffffff&quot;&gt;&lt;span style=&quot;font-size: 14px;&quot;&gt;&lt;br&gt;&lt;/span&gt;&lt;/font&gt;&lt;div&gt;&lt;font style=&quot;font-size: 14px;&quot; color=&quot;#ffffff&quot;&gt;CIF&amp;nbsp; &amp;nbsp; &amp;nbsp;25&lt;/font&gt;&lt;/div&gt;&lt;div&gt;&lt;font style=&quot;font-size: 14px;&quot; color=&quot;#ffffff&quot;&gt;&lt;br&gt;&lt;/font&gt;&lt;/div&gt;&lt;div&gt;&lt;font style=&quot;font-size: 14px;&quot; color=&quot;#ffffff&quot;&gt;Escoba&amp;nbsp; &amp;nbsp;10&lt;/font&gt;&lt;/div&gt;&lt;div&gt;&lt;font style=&quot;font-size: 14px;&quot; color=&quot;#ffffff&quot;&gt;&lt;br&gt;&lt;/font&gt;&lt;/div&gt;&lt;div&gt;&lt;span style=&quot;font-size: 14px; color: rgb(255, 255, 255); background-color: initial;&quot;&gt;Pala&amp;nbsp; &amp;nbsp; 50&lt;/span&gt;&lt;/div&gt;&lt;div&gt;&lt;span style=&quot;font-size: 14px; color: rgb(255, 255, 255); background-color: initial;&quot;&gt;&lt;br&gt;&lt;/span&gt;&lt;/div&gt;&lt;div&gt;&lt;span style=&quot;font-size: 14px; color: rgb(255, 255, 255); background-color: initial;&quot;&gt;Quix&amp;nbsp; &amp;nbsp; 54&lt;/span&gt;&lt;/div&gt;&lt;div&gt;&lt;span style=&quot;font-size: 14px; color: rgb(255, 255, 255); background-color: initial;&quot;&gt;&lt;br&gt;&lt;/span&gt;&lt;/div&gt;&lt;div&gt;&lt;font style=&quot;font-size: 14px;&quot; color=&quot;#ffffff&quot;&gt;Rastrillo&amp;nbsp; &amp;nbsp; 1&lt;/font&gt;&lt;/div&gt;&lt;div&gt;&lt;font style=&quot;font-size: 14px;&quot; color=&quot;#ffffff&quot;&gt;&lt;br&gt;&lt;/font&gt;&lt;/div&gt;&lt;div&gt;&lt;font style=&quot;font-size: 14px;&quot; color=&quot;#ffffff&quot;&gt;Trapo&amp;nbsp; &amp;nbsp; 10&lt;/font&gt;&lt;/div&gt;&lt;/div&gt;" style="text;html=1;align=left;verticalAlign=middle;whiteSpace=wrap;rounded=0;" vertex="1" parent="1">
          <mxGeometry x="690" y="821" width="190" height="170" as="geometry" />
        </mxCell>
        <mxCell id="sdot0CuQ4gvF2WT7U55k-193" value="&lt;font color=&quot;#ffffff&quot;&gt;&lt;span style=&quot;font-size: 17px;&quot;&gt;Tabla Insumos - Cantidad:&lt;/span&gt;&lt;/font&gt;" style="text;html=1;align=center;verticalAlign=middle;whiteSpace=wrap;rounded=0;" vertex="1" parent="1">
          <mxGeometry x="670" y="756" width="206" height="30" as="geometry" />
        </mxCell>
        <mxCell id="sdot0CuQ4gvF2WT7U55k-194" value="&lt;font color=&quot;#ffffff&quot;&gt;&lt;span style=&quot;font-size: 21px;&quot;&gt;&lt;b&gt;Box 2&lt;/b&gt;&lt;/span&gt;&lt;/font&gt;&lt;hr&gt;" style="text;html=1;align=center;verticalAlign=middle;whiteSpace=wrap;rounded=0;" vertex="1" parent="1">
          <mxGeometry x="435" y="676" width="94" height="30" as="geometry" />
        </mxCell>
        <mxCell id="sdot0CuQ4gvF2WT7U55k-195" value="&lt;font style=&quot;font-size: 15px;&quot; color=&quot;#ffffff&quot;&gt;Ingrese el nombre del nuevo insumo:&amp;nbsp;&lt;/font&gt;" style="text;html=1;align=center;verticalAlign=middle;whiteSpace=wrap;rounded=0;" vertex="1" parent="1">
          <mxGeometry x="979" y="786" width="270" height="30" as="geometry" />
        </mxCell>
        <mxCell id="sdot0CuQ4gvF2WT7U55k-196" value="" style="rounded=1;whiteSpace=wrap;html=1;fillColor=#000000;strokeColor=#000000;" vertex="1" parent="1">
          <mxGeometry x="986" y="816" width="256" height="30" as="geometry" />
        </mxCell>
        <mxCell id="sdot0CuQ4gvF2WT7U55k-197" value="&lt;font color=&quot;#b3b3b3&quot;&gt;Escriba acá&lt;/font&gt;" style="text;html=1;align=center;verticalAlign=middle;whiteSpace=wrap;rounded=0;movable=1;resizable=1;rotatable=1;deletable=1;editable=1;locked=0;connectable=1;" vertex="1" parent="1">
          <mxGeometry x="974" y="816" width="95" height="30" as="geometry" />
        </mxCell>
        <mxCell id="sdot0CuQ4gvF2WT7U55k-198" value="" style="rounded=1;whiteSpace=wrap;html=1;fillColor=#99CCFF;strokeColor=none;movable=1;resizable=1;rotatable=1;deletable=1;editable=1;locked=0;connectable=1;" vertex="1" parent="1">
          <mxGeometry x="986" y="856" width="57.5" height="20" as="geometry" />
        </mxCell>
        <mxCell id="sdot0CuQ4gvF2WT7U55k-199" value="&lt;font color=&quot;#ffffff&quot;&gt;Ingresar&lt;/font&gt;" style="text;html=1;align=center;verticalAlign=middle;whiteSpace=wrap;rounded=0;" vertex="1" parent="1">
          <mxGeometry x="986" y="851" width="60" height="30" as="geometry" />
        </mxCell>
        <mxCell id="sdot0CuQ4gvF2WT7U55k-200" value="&lt;font style=&quot;font-size: 15px;&quot; color=&quot;#ffffff&quot;&gt;Ingrese la cantidad:&amp;nbsp;&lt;/font&gt;" style="text;html=1;align=left;verticalAlign=middle;whiteSpace=wrap;rounded=0;" vertex="1" parent="1">
          <mxGeometry x="986" y="891" width="270" height="30" as="geometry" />
        </mxCell>
        <mxCell id="sdot0CuQ4gvF2WT7U55k-201" value="" style="rounded=1;whiteSpace=wrap;html=1;fillColor=#000000;" vertex="1" parent="1">
          <mxGeometry x="986" y="923.5" width="246" height="25" as="geometry" />
        </mxCell>
        <mxCell id="sdot0CuQ4gvF2WT7U55k-202" value="&lt;font color=&quot;#b3b3b3&quot;&gt;Valor numérico&lt;/font&gt;" style="text;html=1;align=left;verticalAlign=middle;whiteSpace=wrap;rounded=0;" vertex="1" parent="1">
          <mxGeometry x="990" y="921" width="104" height="30" as="geometry" />
        </mxCell>
        <mxCell id="sdot0CuQ4gvF2WT7U55k-203" value="" style="whiteSpace=wrap;html=1;aspect=fixed;strokeColor=none;fillColor=#99CCFF;" vertex="1" parent="1">
          <mxGeometry x="990" y="956" width="20" height="20" as="geometry" />
        </mxCell>
        <mxCell id="sdot0CuQ4gvF2WT7U55k-204" value="" style="whiteSpace=wrap;html=1;aspect=fixed;strokeColor=none;fillColor=#99CCFF;" vertex="1" parent="1">
          <mxGeometry x="1011.5" y="956" width="20" height="20" as="geometry" />
        </mxCell>
        <mxCell id="sdot0CuQ4gvF2WT7U55k-205" value="&lt;font color=&quot;#ffffff&quot;&gt;+&lt;/font&gt;" style="text;html=1;align=center;verticalAlign=middle;whiteSpace=wrap;rounded=0;" vertex="1" parent="1">
          <mxGeometry x="970" y="951" width="60" height="30" as="geometry" />
        </mxCell>
        <mxCell id="sdot0CuQ4gvF2WT7U55k-206" value="&lt;font color=&quot;#ffffff&quot;&gt;-&lt;/font&gt;" style="text;html=1;align=center;verticalAlign=middle;whiteSpace=wrap;rounded=0;" vertex="1" parent="1">
          <mxGeometry x="991.5" y="951" width="60" height="30" as="geometry" />
        </mxCell>
        <mxCell id="sdot0CuQ4gvF2WT7U55k-207" value="&lt;font color=&quot;#ffffff&quot;&gt;&lt;span style=&quot;font-size: 20px;&quot;&gt;Medicamentos&lt;/span&gt;&lt;/font&gt;" style="text;html=1;align=center;verticalAlign=middle;whiteSpace=wrap;rounded=0;" vertex="1" parent="1">
          <mxGeometry x="890" y="696" width="120" height="45" as="geometry" />
        </mxCell>
        <mxCell id="sdot0CuQ4gvF2WT7U55k-208" value="&lt;font color=&quot;#ffffff&quot;&gt;&lt;span style=&quot;font-size: 21px;&quot;&gt;&lt;b&gt;Box 1&lt;/b&gt;&lt;/span&gt;&lt;/font&gt;" style="text;html=1;align=center;verticalAlign=middle;whiteSpace=wrap;rounded=0;" vertex="1" parent="1">
          <mxGeometry x="354" y="666" width="94" height="30" as="geometry" />
        </mxCell>
        <mxCell id="sdot0CuQ4gvF2WT7U55k-209" value="Manejo de inventario" style="strokeWidth=1;shadow=0;dashed=0;align=center;html=1;shape=mxgraph.mockup.containers.window;align=left;verticalAlign=top;spacingLeft=8;strokeColor2=#008cff;strokeColor3=#c4c4c4;mainText=;fontSize=17;labelBackgroundColor=none;whiteSpace=wrap;fillColor=#1ba1e2;fontColor=#ffffff;strokeColor=#006EAF;" vertex="1" parent="1">
          <mxGeometry x="90" y="1270" width="880" height="580" as="geometry" />
        </mxCell>
        <mxCell id="sdot0CuQ4gvF2WT7U55k-210" value="&lt;font color=&quot;#ffffff&quot;&gt;&lt;span style=&quot;font-size: 17px;&quot;&gt;Tabla Insumo-Cantidad:&lt;/span&gt;&lt;/font&gt;" style="text;html=1;align=center;verticalAlign=middle;whiteSpace=wrap;rounded=0;" vertex="1" parent="1">
          <mxGeometry x="90" y="1386" width="206" height="30" as="geometry" />
        </mxCell>
        <mxCell id="sdot0CuQ4gvF2WT7U55k-211" value="&lt;font color=&quot;#ffffff&quot;&gt;Volver&lt;/font&gt;" style="rounded=1;whiteSpace=wrap;html=1;strokeColor=none;fillColor=#99CCFF;align=left;" vertex="1" parent="1">
          <mxGeometry x="93" y="1306" width="76" height="30" as="geometry" />
        </mxCell>
        <mxCell id="sdot0CuQ4gvF2WT7U55k-212" value="" style="whiteSpace=wrap;html=1;aspect=fixed;fillColor=#000000;" vertex="1" parent="1">
          <mxGeometry x="98" y="1416" width="240" height="240" as="geometry" />
        </mxCell>
        <mxCell id="sdot0CuQ4gvF2WT7U55k-213" value="&lt;font style=&quot;font-size: 14px;&quot; color=&quot;#ffffff&quot;&gt;Cera&amp;nbsp; &amp;nbsp;25&lt;/font&gt;&lt;div&gt;&lt;font color=&quot;#ffffff&quot;&gt;&lt;span style=&quot;font-size: 14px;&quot;&gt;&lt;br&gt;&lt;/span&gt;&lt;/font&gt;&lt;div&gt;&lt;font style=&quot;font-size: 14px;&quot; color=&quot;#ffffff&quot;&gt;CIF&amp;nbsp; &amp;nbsp; &amp;nbsp;25&lt;/font&gt;&lt;/div&gt;&lt;div&gt;&lt;font style=&quot;font-size: 14px;&quot; color=&quot;#ffffff&quot;&gt;&lt;br&gt;&lt;/font&gt;&lt;/div&gt;&lt;div&gt;&lt;font style=&quot;font-size: 14px;&quot; color=&quot;#ffffff&quot;&gt;Escoba&amp;nbsp; &amp;nbsp;10&lt;/font&gt;&lt;/div&gt;&lt;div&gt;&lt;font style=&quot;font-size: 14px;&quot; color=&quot;#ffffff&quot;&gt;&lt;br&gt;&lt;/font&gt;&lt;/div&gt;&lt;div&gt;&lt;span style=&quot;font-size: 14px; color: rgb(255, 255, 255); background-color: initial;&quot;&gt;Pala&amp;nbsp; &amp;nbsp; 50&lt;/span&gt;&lt;/div&gt;&lt;div&gt;&lt;span style=&quot;font-size: 14px; color: rgb(255, 255, 255); background-color: initial;&quot;&gt;&lt;br&gt;&lt;/span&gt;&lt;/div&gt;&lt;div&gt;&lt;span style=&quot;font-size: 14px; color: rgb(255, 255, 255); background-color: initial;&quot;&gt;Quix&amp;nbsp; &amp;nbsp; 54&lt;/span&gt;&lt;/div&gt;&lt;div&gt;&lt;span style=&quot;font-size: 14px; color: rgb(255, 255, 255); background-color: initial;&quot;&gt;&lt;br&gt;&lt;/span&gt;&lt;/div&gt;&lt;div&gt;&lt;font style=&quot;font-size: 14px;&quot; color=&quot;#ffffff&quot;&gt;Rastrillo&amp;nbsp; &amp;nbsp; 1&lt;/font&gt;&lt;/div&gt;&lt;div&gt;&lt;font style=&quot;font-size: 14px;&quot; color=&quot;#ffffff&quot;&gt;&lt;br&gt;&lt;/font&gt;&lt;/div&gt;&lt;div&gt;&lt;font style=&quot;font-size: 14px;&quot; color=&quot;#ffffff&quot;&gt;Trapo&amp;nbsp; &amp;nbsp; 10&lt;/font&gt;&lt;/div&gt;&lt;/div&gt;" style="text;html=1;align=left;verticalAlign=middle;whiteSpace=wrap;rounded=0;" vertex="1" parent="1">
          <mxGeometry x="110" y="1451" width="190" height="170" as="geometry" />
        </mxCell>
        <mxCell id="sdot0CuQ4gvF2WT7U55k-214" value="&lt;font style=&quot;font-size: 20px;&quot; color=&quot;#ffffff&quot;&gt;Limpieza&lt;/font&gt;" style="text;html=1;align=center;verticalAlign=middle;whiteSpace=wrap;rounded=0;" vertex="1" parent="1">
          <mxGeometry x="325" y="1341" width="120" height="45" as="geometry" />
        </mxCell>
        <mxCell id="sdot0CuQ4gvF2WT7U55k-215" value="&lt;font style=&quot;font-size: 15px;&quot; color=&quot;#ffffff&quot;&gt;Ingrese el nombre del nuevo insumo:&amp;nbsp;&lt;/font&gt;" style="text;html=1;align=center;verticalAlign=middle;whiteSpace=wrap;rounded=0;" vertex="1" parent="1">
          <mxGeometry x="360" y="1416" width="270" height="30" as="geometry" />
        </mxCell>
        <mxCell id="sdot0CuQ4gvF2WT7U55k-216" value="" style="rounded=1;whiteSpace=wrap;html=1;fillColor=#000000;strokeColor=#000000;" vertex="1" parent="1">
          <mxGeometry x="364" y="1446" width="256" height="30" as="geometry" />
        </mxCell>
        <mxCell id="sdot0CuQ4gvF2WT7U55k-217" value="&lt;font color=&quot;#b3b3b3&quot;&gt;Escriba acá&lt;/font&gt;" style="text;html=1;align=center;verticalAlign=middle;whiteSpace=wrap;rounded=0;movable=1;resizable=1;rotatable=1;deletable=1;editable=1;locked=0;connectable=1;" vertex="1" parent="1">
          <mxGeometry x="360" y="1446" width="95" height="30" as="geometry" />
        </mxCell>
        <mxCell id="sdot0CuQ4gvF2WT7U55k-218" value="&lt;font style=&quot;font-size: 15px;&quot; color=&quot;#ffffff&quot;&gt;Ingrese la cantidad:&amp;nbsp;&lt;/font&gt;" style="text;html=1;align=left;verticalAlign=middle;whiteSpace=wrap;rounded=0;" vertex="1" parent="1">
          <mxGeometry x="366" y="1521" width="270" height="30" as="geometry" />
        </mxCell>
        <mxCell id="sdot0CuQ4gvF2WT7U55k-219" value="&lt;font color=&quot;#ffffff&quot;&gt;&lt;span style=&quot;font-size: 21px;&quot;&gt;&lt;b&gt;Sala de espera&lt;/b&gt;&lt;/span&gt;&lt;/font&gt;&lt;hr&gt;" style="text;html=1;align=center;verticalAlign=middle;whiteSpace=wrap;rounded=0;" vertex="1" parent="1">
          <mxGeometry x="219" y="1306" width="175" height="30" as="geometry" />
        </mxCell>
        <mxCell id="sdot0CuQ4gvF2WT7U55k-220" value="" style="rounded=1;whiteSpace=wrap;html=1;fillColor=#99CCFF;strokeColor=none;" vertex="1" parent="1">
          <mxGeometry x="366" y="1486" width="57.5" height="20" as="geometry" />
        </mxCell>
        <mxCell id="sdot0CuQ4gvF2WT7U55k-221" value="&lt;font color=&quot;#ffffff&quot;&gt;Ingresar&lt;/font&gt;" style="text;html=1;align=center;verticalAlign=middle;whiteSpace=wrap;rounded=0;" vertex="1" parent="1">
          <mxGeometry x="364.75" y="1481" width="60" height="30" as="geometry" />
        </mxCell>
        <mxCell id="sdot0CuQ4gvF2WT7U55k-222" value="" style="rounded=1;whiteSpace=wrap;html=1;fillColor=#000000;" vertex="1" parent="1">
          <mxGeometry x="364" y="1551" width="246" height="25" as="geometry" />
        </mxCell>
        <mxCell id="sdot0CuQ4gvF2WT7U55k-223" value="&lt;font color=&quot;#b3b3b3&quot;&gt;Valor numérico&lt;/font&gt;" style="text;html=1;align=left;verticalAlign=middle;whiteSpace=wrap;rounded=0;" vertex="1" parent="1">
          <mxGeometry x="372" y="1548.5" width="104" height="30" as="geometry" />
        </mxCell>
        <mxCell id="sdot0CuQ4gvF2WT7U55k-224" value="" style="whiteSpace=wrap;html=1;aspect=fixed;strokeColor=none;fillColor=#99CCFF;" vertex="1" parent="1">
          <mxGeometry x="364" y="1586" width="20" height="20" as="geometry" />
        </mxCell>
        <mxCell id="sdot0CuQ4gvF2WT7U55k-225" value="" style="whiteSpace=wrap;html=1;aspect=fixed;strokeColor=none;fillColor=#99CCFF;" vertex="1" parent="1">
          <mxGeometry x="386" y="1586" width="20" height="20" as="geometry" />
        </mxCell>
        <mxCell id="sdot0CuQ4gvF2WT7U55k-226" value="&lt;font color=&quot;#ffffff&quot;&gt;+&lt;/font&gt;" style="text;html=1;align=center;verticalAlign=middle;whiteSpace=wrap;rounded=0;" vertex="1" parent="1">
          <mxGeometry x="344" y="1581" width="60" height="30" as="geometry" />
        </mxCell>
        <mxCell id="sdot0CuQ4gvF2WT7U55k-227" value="&lt;font color=&quot;#ffffff&quot;&gt;-&lt;/font&gt;" style="text;html=1;align=center;verticalAlign=middle;whiteSpace=wrap;rounded=0;movable=1;resizable=1;rotatable=1;deletable=1;editable=1;locked=0;connectable=1;" vertex="1" parent="1">
          <mxGeometry x="364.75" y="1581" width="60" height="30" as="geometry" />
        </mxCell>
        <mxCell id="sdot0CuQ4gvF2WT7U55k-231" value="&lt;font color=&quot;#ffffff&quot;&gt;&lt;span style=&quot;font-size: 21px;&quot;&gt;&lt;b&gt;Box 2&lt;/b&gt;&lt;/span&gt;&lt;/font&gt;" style="text;html=1;align=center;verticalAlign=middle;whiteSpace=wrap;rounded=0;" vertex="1" parent="1">
          <mxGeometry x="490" y="1306" width="94" height="30" as="geometry" />
        </mxCell>
        <mxCell id="sdot0CuQ4gvF2WT7U55k-245" value="&lt;font color=&quot;#ffffff&quot;&gt;&lt;span style=&quot;font-size: 21px;&quot;&gt;&lt;b&gt;Box 1&lt;/b&gt;&lt;/span&gt;&lt;/font&gt;" style="text;html=1;align=center;verticalAlign=middle;whiteSpace=wrap;rounded=0;" vertex="1" parent="1">
          <mxGeometry x="404" y="1306" width="94" height="30" as="geometry" />
        </mxCell>
      </root>
    </mxGraphModel>
  </diagram>
</mxfile>
